<mxfile host="app.diagrams.net" modified="2024-07-17T15:41:19.524Z" agent="Mozilla/5.0 (X11; Ubuntu; Linux x86_64; rv:128.0) Gecko/20100101 Firefox/128.0" etag="N6cWsxoF8CcW3892cScM" version="24.4.13" type="device">
  <diagram name="Page-1" id="0-m88H4kPDtaTsctPx1N">
    <mxGraphModel dx="2868" dy="1814" grid="1" gridSize="10" guides="1" tooltips="1" connect="1" arrows="1" fold="1" page="1" pageScale="1" pageWidth="850" pageHeight="1100" background="#ffffff" math="0" shadow="0">
      <root>
        <mxCell id="0" />
        <mxCell id="1" parent="0" />
        <mxCell id="E4qUQialb6zIpBZSvnpH-1" value="THUNDERFLIX" style="rounded=0;whiteSpace=wrap;html=1;" vertex="1" parent="1">
          <mxGeometry x="330" y="280" width="120" height="60" as="geometry" />
        </mxCell>
        <mxCell id="E4qUQialb6zIpBZSvnpH-3" value="" style="edgeStyle=orthogonalEdgeStyle;rounded=0;orthogonalLoop=1;jettySize=auto;html=1;endArrow=none;endFill=0;" edge="1" parent="1" source="E4qUQialb6zIpBZSvnpH-2" target="E4qUQialb6zIpBZSvnpH-1">
          <mxGeometry relative="1" as="geometry" />
        </mxCell>
        <mxCell id="E4qUQialb6zIpBZSvnpH-2" value="&lt;div&gt;&lt;font style=&quot;font-size: 6px;&quot;&gt;OLHO_DE_&lt;/font&gt;&lt;/div&gt;&lt;div&gt;&lt;font style=&quot;font-size: 6px;&quot;&gt;THUNDERA&lt;/font&gt;&lt;/div&gt;" style="ellipse;whiteSpace=wrap;html=1;" vertex="1" parent="1">
          <mxGeometry x="365" y="210" width="50" height="30" as="geometry" />
        </mxCell>
        <mxCell id="E4qUQialb6zIpBZSvnpH-6" value="" style="edgeStyle=orthogonalEdgeStyle;rounded=0;orthogonalLoop=1;jettySize=auto;html=1;endArrow=none;endFill=0;" edge="1" parent="1" source="E4qUQialb6zIpBZSvnpH-4" target="E4qUQialb6zIpBZSvnpH-1">
          <mxGeometry relative="1" as="geometry" />
        </mxCell>
        <mxCell id="E4qUQialb6zIpBZSvnpH-7" value="" style="edgeStyle=orthogonalEdgeStyle;rounded=0;orthogonalLoop=1;jettySize=auto;html=1;shape=link;" edge="1" parent="1" source="E4qUQialb6zIpBZSvnpH-4" target="E4qUQialb6zIpBZSvnpH-5">
          <mxGeometry relative="1" as="geometry" />
        </mxCell>
        <mxCell id="E4qUQialb6zIpBZSvnpH-4" value="&lt;font style=&quot;font-size: 6px;&quot;&gt;CADASTRA&lt;/font&gt;" style="rhombus;whiteSpace=wrap;html=1;" vertex="1" parent="1">
          <mxGeometry x="530" y="320" width="50" height="40" as="geometry" />
        </mxCell>
        <mxCell id="E4qUQialb6zIpBZSvnpH-5" value="CONTA" style="rounded=0;whiteSpace=wrap;html=1;" vertex="1" parent="1">
          <mxGeometry x="645" y="285" width="110" height="55" as="geometry" />
        </mxCell>
        <mxCell id="E4qUQialb6zIpBZSvnpH-9" style="edgeStyle=orthogonalEdgeStyle;rounded=0;orthogonalLoop=1;jettySize=auto;html=1;exitX=1;exitY=0.5;exitDx=0;exitDy=0;entryX=0;entryY=0.25;entryDx=0;entryDy=0;shape=link;" edge="1" parent="1" source="E4qUQialb6zIpBZSvnpH-8" target="E4qUQialb6zIpBZSvnpH-5">
          <mxGeometry relative="1" as="geometry" />
        </mxCell>
        <mxCell id="E4qUQialb6zIpBZSvnpH-8" value="&lt;font style=&quot;font-size: 6px;&quot;&gt;PAGA&lt;/font&gt;" style="rhombus;whiteSpace=wrap;html=1;" vertex="1" parent="1">
          <mxGeometry x="530" y="240" width="50" height="40" as="geometry" />
        </mxCell>
        <mxCell id="E4qUQialb6zIpBZSvnpH-10" style="edgeStyle=orthogonalEdgeStyle;rounded=0;orthogonalLoop=1;jettySize=auto;html=1;entryX=1.011;entryY=0.191;entryDx=0;entryDy=0;entryPerimeter=0;endArrow=none;endFill=0;" edge="1" parent="1" source="E4qUQialb6zIpBZSvnpH-8" target="E4qUQialb6zIpBZSvnpH-1">
          <mxGeometry relative="1" as="geometry" />
        </mxCell>
        <mxCell id="E4qUQialb6zIpBZSvnpH-13" value="1" style="text;html=1;align=center;verticalAlign=middle;whiteSpace=wrap;rounded=0;" vertex="1" parent="1">
          <mxGeometry x="460" y="270" width="10" height="20" as="geometry" />
        </mxCell>
        <mxCell id="E4qUQialb6zIpBZSvnpH-14" value="1" style="text;html=1;align=center;verticalAlign=middle;whiteSpace=wrap;rounded=0;" vertex="1" parent="1">
          <mxGeometry x="460" y="310" width="10" height="20" as="geometry" />
        </mxCell>
        <mxCell id="E4qUQialb6zIpBZSvnpH-17" style="edgeStyle=orthogonalEdgeStyle;rounded=0;orthogonalLoop=1;jettySize=auto;html=1;endArrow=none;endFill=0;" edge="1" parent="1" source="E4qUQialb6zIpBZSvnpH-15" target="E4qUQialb6zIpBZSvnpH-5">
          <mxGeometry relative="1" as="geometry" />
        </mxCell>
        <mxCell id="E4qUQialb6zIpBZSvnpH-15" value="&lt;u&gt;email&lt;/u&gt;" style="ellipse;whiteSpace=wrap;html=1;" vertex="1" parent="1">
          <mxGeometry x="680" y="240" width="40" height="20" as="geometry" />
        </mxCell>
        <mxCell id="E4qUQialb6zIpBZSvnpH-21" style="edgeStyle=orthogonalEdgeStyle;rounded=0;orthogonalLoop=1;jettySize=auto;html=1;entryX=0.5;entryY=1;entryDx=0;entryDy=0;endArrow=none;endFill=0;" edge="1" parent="1" source="E4qUQialb6zIpBZSvnpH-18" target="E4qUQialb6zIpBZSvnpH-5">
          <mxGeometry relative="1" as="geometry" />
        </mxCell>
        <mxCell id="E4qUQialb6zIpBZSvnpH-18" value="info_cartÃ£o" style="ellipse;whiteSpace=wrap;html=1;" vertex="1" parent="1">
          <mxGeometry x="665" y="370" width="70" height="30" as="geometry" />
        </mxCell>
        <mxCell id="E4qUQialb6zIpBZSvnpH-22" value="numero" style="ellipse;whiteSpace=wrap;html=1;" vertex="1" parent="1">
          <mxGeometry x="590" y="430" width="70" height="30" as="geometry" />
        </mxCell>
        <mxCell id="E4qUQialb6zIpBZSvnpH-23" value="validade" style="ellipse;whiteSpace=wrap;html=1;" vertex="1" parent="1">
          <mxGeometry x="665" y="430" width="70" height="30" as="geometry" />
        </mxCell>
        <mxCell id="E4qUQialb6zIpBZSvnpH-24" value="cod. seg." style="ellipse;whiteSpace=wrap;html=1;" vertex="1" parent="1">
          <mxGeometry x="740" y="430" width="70" height="30" as="geometry" />
        </mxCell>
        <mxCell id="E4qUQialb6zIpBZSvnpH-25" style="edgeStyle=orthogonalEdgeStyle;rounded=0;orthogonalLoop=1;jettySize=auto;html=1;entryX=0.498;entryY=1.129;entryDx=0;entryDy=0;entryPerimeter=0;endArrow=none;endFill=0;" edge="1" parent="1" source="E4qUQialb6zIpBZSvnpH-23" target="E4qUQialb6zIpBZSvnpH-18">
          <mxGeometry relative="1" as="geometry" />
        </mxCell>
        <mxCell id="E4qUQialb6zIpBZSvnpH-26" style="edgeStyle=orthogonalEdgeStyle;rounded=0;orthogonalLoop=1;jettySize=auto;html=1;entryX=0.797;entryY=1.065;entryDx=0;entryDy=0;entryPerimeter=0;endArrow=none;endFill=0;" edge="1" parent="1" source="E4qUQialb6zIpBZSvnpH-24" target="E4qUQialb6zIpBZSvnpH-18">
          <mxGeometry relative="1" as="geometry">
            <Array as="points">
              <mxPoint x="770" y="410" />
              <mxPoint x="721" y="410" />
            </Array>
          </mxGeometry>
        </mxCell>
        <mxCell id="E4qUQialb6zIpBZSvnpH-28" style="edgeStyle=orthogonalEdgeStyle;rounded=0;orthogonalLoop=1;jettySize=auto;html=1;entryX=0.214;entryY=1;entryDx=0;entryDy=0;entryPerimeter=0;endArrow=none;endFill=0;" edge="1" parent="1" source="E4qUQialb6zIpBZSvnpH-22" target="E4qUQialb6zIpBZSvnpH-18">
          <mxGeometry relative="1" as="geometry">
            <Array as="points">
              <mxPoint x="625" y="410" />
              <mxPoint x="680" y="410" />
            </Array>
          </mxGeometry>
        </mxCell>
        <mxCell id="E4qUQialb6zIpBZSvnpH-59" value="USUARIO" style="rounded=0;whiteSpace=wrap;html=1;" vertex="1" parent="1">
          <mxGeometry x="995" y="287.5" width="110" height="55" as="geometry" />
        </mxCell>
        <mxCell id="E4qUQialb6zIpBZSvnpH-60" value="" style="rounded=0;whiteSpace=wrap;html=1;fillColor=none;" vertex="1" parent="1">
          <mxGeometry x="990" y="285" width="120" height="60" as="geometry" />
        </mxCell>
        <mxCell id="E4qUQialb6zIpBZSvnpH-61" value="" style="rhombus;whiteSpace=wrap;html=1;" vertex="1" parent="1">
          <mxGeometry x="850" y="292.02" width="60" height="50" as="geometry" />
        </mxCell>
        <mxCell id="E4qUQialb6zIpBZSvnpH-62" value="CRIA" style="rhombus;whiteSpace=wrap;html=1;" vertex="1" parent="1">
          <mxGeometry x="856.25" y="297.02" width="47.5" height="40" as="geometry" />
        </mxCell>
        <mxCell id="E4qUQialb6zIpBZSvnpH-63" style="edgeStyle=orthogonalEdgeStyle;rounded=0;orthogonalLoop=1;jettySize=auto;html=1;exitX=0.5;exitY=1;exitDx=0;exitDy=0;" edge="1" parent="1" source="E4qUQialb6zIpBZSvnpH-61" target="E4qUQialb6zIpBZSvnpH-61">
          <mxGeometry relative="1" as="geometry" />
        </mxCell>
        <mxCell id="E4qUQialb6zIpBZSvnpH-64" style="edgeStyle=orthogonalEdgeStyle;rounded=0;orthogonalLoop=1;jettySize=auto;html=1;exitX=1;exitY=0.5;exitDx=0;exitDy=0;entryX=-0.025;entryY=0.544;entryDx=0;entryDy=0;entryPerimeter=0;endArrow=none;endFill=0;shape=link;" edge="1" parent="1" source="E4qUQialb6zIpBZSvnpH-61" target="E4qUQialb6zIpBZSvnpH-60">
          <mxGeometry relative="1" as="geometry" />
        </mxCell>
        <mxCell id="E4qUQialb6zIpBZSvnpH-65" style="edgeStyle=orthogonalEdgeStyle;rounded=0;orthogonalLoop=1;jettySize=auto;html=1;entryX=1.045;entryY=0.582;entryDx=0;entryDy=0;entryPerimeter=0;endArrow=none;endFill=0;" edge="1" parent="1" source="E4qUQialb6zIpBZSvnpH-61" target="E4qUQialb6zIpBZSvnpH-5">
          <mxGeometry relative="1" as="geometry" />
        </mxCell>
        <mxCell id="E4qUQialb6zIpBZSvnpH-68" value="1" style="text;html=1;align=center;verticalAlign=middle;whiteSpace=wrap;rounded=0;" vertex="1" parent="1">
          <mxGeometry x="629" y="320" width="10" height="20" as="geometry" />
        </mxCell>
        <mxCell id="E4qUQialb6zIpBZSvnpH-69" value="1" style="text;html=1;align=center;verticalAlign=middle;whiteSpace=wrap;rounded=0;" vertex="1" parent="1">
          <mxGeometry x="770" y="292.02" width="10" height="20" as="geometry" />
        </mxCell>
        <mxCell id="E4qUQialb6zIpBZSvnpH-70" value="N" style="text;html=1;align=center;verticalAlign=middle;whiteSpace=wrap;rounded=0;" vertex="1" parent="1">
          <mxGeometry x="625" y="277.02" width="20" height="20" as="geometry" />
        </mxCell>
        <mxCell id="E4qUQialb6zIpBZSvnpH-71" value="N" style="text;html=1;align=center;verticalAlign=middle;whiteSpace=wrap;rounded=0;" vertex="1" parent="1">
          <mxGeometry x="960" y="292.02" width="20" height="20" as="geometry" />
        </mxCell>
        <mxCell id="E4qUQialb6zIpBZSvnpH-72" value="nome" style="ellipse;whiteSpace=wrap;html=1;" vertex="1" parent="1">
          <mxGeometry x="995" y="235" width="40" height="20" as="geometry" />
        </mxCell>
        <mxCell id="E4qUQialb6zIpBZSvnpH-73" value="" style="endArrow=none;dashed=1;html=1;rounded=0;" edge="1" parent="1">
          <mxGeometry width="50" height="50" relative="1" as="geometry">
            <mxPoint x="1000" y="252.02" as="sourcePoint" />
            <mxPoint x="1030" y="252.02" as="targetPoint" />
          </mxGeometry>
        </mxCell>
        <mxCell id="E4qUQialb6zIpBZSvnpH-74" value="idioma" style="ellipse;whiteSpace=wrap;html=1;" vertex="1" parent="1">
          <mxGeometry x="1050" y="235" width="50" height="25" as="geometry" />
        </mxCell>
        <mxCell id="E4qUQialb6zIpBZSvnpH-76" style="edgeStyle=orthogonalEdgeStyle;rounded=0;orthogonalLoop=1;jettySize=auto;html=1;exitX=0.5;exitY=1;exitDx=0;exitDy=0;" edge="1" parent="1" source="E4qUQialb6zIpBZSvnpH-74" target="E4qUQialb6zIpBZSvnpH-74">
          <mxGeometry relative="1" as="geometry" />
        </mxCell>
        <mxCell id="E4qUQialb6zIpBZSvnpH-77" style="edgeStyle=orthogonalEdgeStyle;rounded=0;orthogonalLoop=1;jettySize=auto;html=1;entryX=0.208;entryY=-0.083;entryDx=0;entryDy=0;entryPerimeter=0;endArrow=none;endFill=0;" edge="1" parent="1" source="E4qUQialb6zIpBZSvnpH-72" target="E4qUQialb6zIpBZSvnpH-60">
          <mxGeometry relative="1" as="geometry" />
        </mxCell>
        <mxCell id="E4qUQialb6zIpBZSvnpH-78" style="edgeStyle=orthogonalEdgeStyle;rounded=0;orthogonalLoop=1;jettySize=auto;html=1;entryX=0.709;entryY=-0.011;entryDx=0;entryDy=0;entryPerimeter=0;endArrow=none;endFill=0;" edge="1" parent="1" source="E4qUQialb6zIpBZSvnpH-74" target="E4qUQialb6zIpBZSvnpH-60">
          <mxGeometry relative="1" as="geometry" />
        </mxCell>
        <mxCell id="E4qUQialb6zIpBZSvnpH-81" value="LISTA" style="rounded=0;whiteSpace=wrap;html=1;" vertex="1" parent="1">
          <mxGeometry x="1340" y="294.02" width="110" height="55" as="geometry" />
        </mxCell>
        <mxCell id="E4qUQialb6zIpBZSvnpH-83" style="edgeStyle=orthogonalEdgeStyle;rounded=0;orthogonalLoop=1;jettySize=auto;html=1;endArrow=none;endFill=0;" edge="1" parent="1" source="E4qUQialb6zIpBZSvnpH-82" target="E4qUQialb6zIpBZSvnpH-81">
          <mxGeometry relative="1" as="geometry" />
        </mxCell>
        <mxCell id="E4qUQialb6zIpBZSvnpH-82" value="&lt;u&gt;nome&lt;/u&gt;" style="ellipse;whiteSpace=wrap;html=1;" vertex="1" parent="1">
          <mxGeometry x="1375" y="245" width="40" height="20" as="geometry" />
        </mxCell>
        <mxCell id="E4qUQialb6zIpBZSvnpH-182" style="edgeStyle=orthogonalEdgeStyle;rounded=0;orthogonalLoop=1;jettySize=auto;html=1;entryX=1;entryY=0.5;entryDx=0;entryDy=0;endArrow=none;endFill=0;" edge="1" parent="1" source="E4qUQialb6zIpBZSvnpH-84" target="E4qUQialb6zIpBZSvnpH-160">
          <mxGeometry relative="1" as="geometry">
            <Array as="points">
              <mxPoint x="1220" y="778" />
            </Array>
          </mxGeometry>
        </mxCell>
        <mxCell id="E4qUQialb6zIpBZSvnpH-84" value="" style="whiteSpace=wrap;html=1;aspect=fixed;" vertex="1" parent="1">
          <mxGeometry x="1184.99" y="280.49" width="80.02" height="80.02" as="geometry" />
        </mxCell>
        <mxCell id="E4qUQialb6zIpBZSvnpH-85" value="" style="rhombus;whiteSpace=wrap;html=1;" vertex="1" parent="1">
          <mxGeometry x="1195" y="295.5" width="60" height="50" as="geometry" />
        </mxCell>
        <mxCell id="E4qUQialb6zIpBZSvnpH-87" value="FAZ" style="text;whiteSpace=wrap;html=1;" vertex="1" parent="1">
          <mxGeometry x="1210" y="307.5" width="30" height="25" as="geometry" />
        </mxCell>
        <mxCell id="E4qUQialb6zIpBZSvnpH-94" style="edgeStyle=orthogonalEdgeStyle;rounded=0;orthogonalLoop=1;jettySize=auto;html=1;exitX=0;exitY=0.5;exitDx=0;exitDy=0;entryX=1.026;entryY=0.598;entryDx=0;entryDy=0;entryPerimeter=0;endArrow=none;endFill=0;" edge="1" parent="1" source="E4qUQialb6zIpBZSvnpH-85" target="E4qUQialb6zIpBZSvnpH-60">
          <mxGeometry relative="1" as="geometry" />
        </mxCell>
        <mxCell id="E4qUQialb6zIpBZSvnpH-95" style="edgeStyle=orthogonalEdgeStyle;rounded=0;orthogonalLoop=1;jettySize=auto;html=1;exitX=1;exitY=0.5;exitDx=0;exitDy=0;entryX=-0.038;entryY=0.475;entryDx=0;entryDy=0;entryPerimeter=0;endArrow=none;endFill=0;" edge="1" parent="1" source="E4qUQialb6zIpBZSvnpH-85" target="E4qUQialb6zIpBZSvnpH-81">
          <mxGeometry relative="1" as="geometry" />
        </mxCell>
        <mxCell id="E4qUQialb6zIpBZSvnpH-96" value="1" style="text;html=1;align=center;verticalAlign=middle;whiteSpace=wrap;rounded=0;" vertex="1" parent="1">
          <mxGeometry x="1130" y="292.02" width="10" height="20" as="geometry" />
        </mxCell>
        <mxCell id="E4qUQialb6zIpBZSvnpH-97" value="N" style="text;html=1;align=center;verticalAlign=middle;whiteSpace=wrap;rounded=0;" vertex="1" parent="1">
          <mxGeometry x="1310" y="295.5" width="20" height="20" as="geometry" />
        </mxCell>
        <mxCell id="E4qUQialb6zIpBZSvnpH-98" value="&lt;div&gt;GENERO&lt;/div&gt;" style="rounded=0;whiteSpace=wrap;html=1;" vertex="1" parent="1">
          <mxGeometry x="80" y="282.02" width="110" height="55" as="geometry" />
        </mxCell>
        <mxCell id="E4qUQialb6zIpBZSvnpH-100" style="edgeStyle=orthogonalEdgeStyle;rounded=0;orthogonalLoop=1;jettySize=auto;html=1;exitX=1;exitY=0.5;exitDx=0;exitDy=0;entryX=0;entryY=0.25;entryDx=0;entryDy=0;endArrow=none;endFill=0;" edge="1" parent="1" source="E4qUQialb6zIpBZSvnpH-99" target="E4qUQialb6zIpBZSvnpH-98">
          <mxGeometry relative="1" as="geometry" />
        </mxCell>
        <mxCell id="E4qUQialb6zIpBZSvnpH-99" value="&lt;u&gt;nome&lt;/u&gt;" style="ellipse;whiteSpace=wrap;html=1;" vertex="1" parent="1">
          <mxGeometry x="10" y="292.02" width="40" height="20" as="geometry" />
        </mxCell>
        <mxCell id="E4qUQialb6zIpBZSvnpH-102" style="edgeStyle=orthogonalEdgeStyle;rounded=0;orthogonalLoop=1;jettySize=auto;html=1;exitX=1;exitY=0.5;exitDx=0;exitDy=0;entryX=0;entryY=0.5;entryDx=0;entryDy=0;endArrow=none;endFill=0;" edge="1" parent="1" source="E4qUQialb6zIpBZSvnpH-101" target="E4qUQialb6zIpBZSvnpH-1">
          <mxGeometry relative="1" as="geometry" />
        </mxCell>
        <mxCell id="E4qUQialb6zIpBZSvnpH-103" style="edgeStyle=orthogonalEdgeStyle;rounded=0;orthogonalLoop=1;jettySize=auto;html=1;exitX=0;exitY=0.5;exitDx=0;exitDy=0;entryX=1;entryY=0.5;entryDx=0;entryDy=0;endArrow=none;endFill=0;" edge="1" parent="1" source="E4qUQialb6zIpBZSvnpH-101" target="E4qUQialb6zIpBZSvnpH-98">
          <mxGeometry relative="1" as="geometry" />
        </mxCell>
        <mxCell id="E4qUQialb6zIpBZSvnpH-101" value="tem" style="rhombus;whiteSpace=wrap;html=1;" vertex="1" parent="1">
          <mxGeometry x="240" y="289.5" width="50" height="40" as="geometry" />
        </mxCell>
        <mxCell id="E4qUQialb6zIpBZSvnpH-108" value="N" style="text;html=1;align=center;verticalAlign=middle;whiteSpace=wrap;rounded=0;" vertex="1" parent="1">
          <mxGeometry x="200" y="285" width="20" height="20" as="geometry" />
        </mxCell>
        <mxCell id="E4qUQialb6zIpBZSvnpH-109" value="1" style="text;html=1;align=center;verticalAlign=middle;whiteSpace=wrap;rounded=0;" vertex="1" parent="1">
          <mxGeometry x="310" y="283" width="10" height="20" as="geometry" />
        </mxCell>
        <mxCell id="E4qUQialb6zIpBZSvnpH-113" style="edgeStyle=orthogonalEdgeStyle;rounded=0;orthogonalLoop=1;jettySize=auto;html=1;exitX=1;exitY=0.5;exitDx=0;exitDy=0;entryX=0.5;entryY=0;entryDx=0;entryDy=0;endArrow=none;endFill=0;" edge="1" parent="1" source="E4qUQialb6zIpBZSvnpH-112" target="E4qUQialb6zIpBZSvnpH-60">
          <mxGeometry relative="1" as="geometry" />
        </mxCell>
        <mxCell id="E4qUQialb6zIpBZSvnpH-114" style="edgeStyle=orthogonalEdgeStyle;rounded=0;orthogonalLoop=1;jettySize=auto;html=1;exitX=0;exitY=0.5;exitDx=0;exitDy=0;endArrow=none;endFill=0;" edge="1" parent="1" source="E4qUQialb6zIpBZSvnpH-112">
          <mxGeometry relative="1" as="geometry">
            <mxPoint x="140" y="280" as="targetPoint" />
          </mxGeometry>
        </mxCell>
        <mxCell id="E4qUQialb6zIpBZSvnpH-112" value="explora" style="rhombus;whiteSpace=wrap;html=1;" vertex="1" parent="1">
          <mxGeometry x="590" y="141" width="80" height="40" as="geometry" />
        </mxCell>
        <mxCell id="E4qUQialb6zIpBZSvnpH-115" value="N" style="text;html=1;align=center;verticalAlign=middle;whiteSpace=wrap;rounded=0;" vertex="1" parent="1">
          <mxGeometry x="110" y="201" width="20" height="20" as="geometry" />
        </mxCell>
        <mxCell id="E4qUQialb6zIpBZSvnpH-116" value="N" style="text;html=1;align=center;verticalAlign=middle;whiteSpace=wrap;rounded=0;" vertex="1" parent="1">
          <mxGeometry x="1060" y="181" width="20" height="20" as="geometry" />
        </mxCell>
        <mxCell id="E4qUQialb6zIpBZSvnpH-137" style="edgeStyle=orthogonalEdgeStyle;rounded=0;orthogonalLoop=1;jettySize=auto;html=1;shape=link;" edge="1" parent="1" source="E4qUQialb6zIpBZSvnpH-117">
          <mxGeometry relative="1" as="geometry">
            <mxPoint x="420" y="660" as="targetPoint" />
          </mxGeometry>
        </mxCell>
        <mxCell id="E4qUQialb6zIpBZSvnpH-117" value="&lt;div&gt;CONTEUDO&lt;br&gt;&lt;/div&gt;" style="rounded=0;whiteSpace=wrap;html=1;" vertex="1" parent="1">
          <mxGeometry x="200" y="575" width="110" height="55" as="geometry" />
        </mxCell>
        <mxCell id="E4qUQialb6zIpBZSvnpH-118" value="&lt;u&gt;nome&lt;/u&gt;" style="ellipse;whiteSpace=wrap;html=1;" vertex="1" parent="1">
          <mxGeometry x="100" y="575" width="40" height="20" as="geometry" />
        </mxCell>
        <mxCell id="E4qUQialb6zIpBZSvnpH-125" style="edgeStyle=orthogonalEdgeStyle;rounded=0;orthogonalLoop=1;jettySize=auto;html=1;entryX=0;entryY=0;entryDx=0;entryDy=0;endArrow=none;endFill=0;" edge="1" parent="1" source="E4qUQialb6zIpBZSvnpH-119" target="E4qUQialb6zIpBZSvnpH-117">
          <mxGeometry relative="1" as="geometry" />
        </mxCell>
        <mxCell id="E4qUQialb6zIpBZSvnpH-119" value="trailer" style="ellipse;whiteSpace=wrap;html=1;" vertex="1" parent="1">
          <mxGeometry x="120" y="540" width="60" height="25" as="geometry" />
        </mxCell>
        <mxCell id="E4qUQialb6zIpBZSvnpH-127" style="edgeStyle=orthogonalEdgeStyle;rounded=0;orthogonalLoop=1;jettySize=auto;html=1;entryX=0;entryY=0.5;entryDx=0;entryDy=0;endArrow=none;endFill=0;" edge="1" parent="1" source="E4qUQialb6zIpBZSvnpH-120" target="E4qUQialb6zIpBZSvnpH-117">
          <mxGeometry relative="1" as="geometry" />
        </mxCell>
        <mxCell id="E4qUQialb6zIpBZSvnpH-120" value="info" style="ellipse;whiteSpace=wrap;html=1;" vertex="1" parent="1">
          <mxGeometry x="90" y="610" width="60" height="25" as="geometry" />
        </mxCell>
        <mxCell id="E4qUQialb6zIpBZSvnpH-128" style="edgeStyle=orthogonalEdgeStyle;rounded=0;orthogonalLoop=1;jettySize=auto;html=1;entryX=0;entryY=0.75;entryDx=0;entryDy=0;endArrow=none;endFill=0;" edge="1" parent="1" source="E4qUQialb6zIpBZSvnpH-121" target="E4qUQialb6zIpBZSvnpH-117">
          <mxGeometry relative="1" as="geometry">
            <Array as="points">
              <mxPoint x="190" y="680" />
              <mxPoint x="190" y="616" />
            </Array>
          </mxGeometry>
        </mxCell>
        <mxCell id="E4qUQialb6zIpBZSvnpH-121" value="faixa etaria" style="ellipse;whiteSpace=wrap;html=1;" vertex="1" parent="1">
          <mxGeometry x="110" y="660" width="60" height="40" as="geometry" />
        </mxCell>
        <mxCell id="E4qUQialb6zIpBZSvnpH-122" value="elenco" style="ellipse;whiteSpace=wrap;html=1;" vertex="1" parent="1">
          <mxGeometry x="160" y="720" width="60" height="25" as="geometry" />
        </mxCell>
        <mxCell id="E4qUQialb6zIpBZSvnpH-123" value="" style="ellipse;whiteSpace=wrap;html=1;fillColor=none;" vertex="1" parent="1">
          <mxGeometry x="155" y="715" width="70" height="35" as="geometry" />
        </mxCell>
        <mxCell id="E4qUQialb6zIpBZSvnpH-126" style="edgeStyle=orthogonalEdgeStyle;rounded=0;orthogonalLoop=1;jettySize=auto;html=1;entryX=0;entryY=0.145;entryDx=0;entryDy=0;entryPerimeter=0;endArrow=none;endFill=0;" edge="1" parent="1" source="E4qUQialb6zIpBZSvnpH-118" target="E4qUQialb6zIpBZSvnpH-117">
          <mxGeometry relative="1" as="geometry" />
        </mxCell>
        <mxCell id="E4qUQialb6zIpBZSvnpH-129" style="edgeStyle=orthogonalEdgeStyle;rounded=0;orthogonalLoop=1;jettySize=auto;html=1;entryX=0.1;entryY=0.982;entryDx=0;entryDy=0;entryPerimeter=0;endArrow=none;endFill=0;" edge="1" parent="1" source="E4qUQialb6zIpBZSvnpH-123" target="E4qUQialb6zIpBZSvnpH-117">
          <mxGeometry relative="1" as="geometry">
            <Array as="points">
              <mxPoint x="190" y="695" />
              <mxPoint x="211" y="695" />
            </Array>
          </mxGeometry>
        </mxCell>
        <mxCell id="E4qUQialb6zIpBZSvnpH-133" value="" style="edgeStyle=orthogonalEdgeStyle;rounded=0;orthogonalLoop=1;jettySize=auto;html=1;endArrow=none;endFill=0;" edge="1" parent="1" source="E4qUQialb6zIpBZSvnpH-130" target="E4qUQialb6zIpBZSvnpH-117">
          <mxGeometry relative="1" as="geometry">
            <Array as="points">
              <mxPoint x="308" y="650" />
              <mxPoint x="300" y="650" />
            </Array>
          </mxGeometry>
        </mxCell>
        <mxCell id="E4qUQialb6zIpBZSvnpH-130" value="RECOMENDA" style="rhombus;whiteSpace=wrap;html=1;" vertex="1" parent="1">
          <mxGeometry x="240" y="670" width="105" height="50" as="geometry" />
        </mxCell>
        <mxCell id="E4qUQialb6zIpBZSvnpH-132" style="edgeStyle=orthogonalEdgeStyle;rounded=0;orthogonalLoop=1;jettySize=auto;html=1;entryX=0.4;entryY=1.073;entryDx=0;entryDy=0;entryPerimeter=0;endArrow=none;endFill=0;" edge="1" parent="1" source="E4qUQialb6zIpBZSvnpH-130" target="E4qUQialb6zIpBZSvnpH-117">
          <mxGeometry relative="1" as="geometry">
            <Array as="points">
              <mxPoint x="255" y="650" />
              <mxPoint x="244" y="650" />
            </Array>
          </mxGeometry>
        </mxCell>
        <mxCell id="E4qUQialb6zIpBZSvnpH-134" value="N" style="text;html=1;align=center;verticalAlign=middle;whiteSpace=wrap;rounded=0;" vertex="1" parent="1">
          <mxGeometry x="255" y="640" width="20" height="20" as="geometry" />
        </mxCell>
        <mxCell id="E4qUQialb6zIpBZSvnpH-135" value="N" style="text;html=1;align=center;verticalAlign=middle;whiteSpace=wrap;rounded=0;" vertex="1" parent="1">
          <mxGeometry x="310" y="640" width="20" height="20" as="geometry" />
        </mxCell>
        <mxCell id="E4qUQialb6zIpBZSvnpH-140" style="edgeStyle=orthogonalEdgeStyle;rounded=0;orthogonalLoop=1;jettySize=auto;html=1;entryX=0.5;entryY=0;entryDx=0;entryDy=0;endArrow=none;endFill=0;" edge="1" parent="1" source="E4qUQialb6zIpBZSvnpH-136" target="E4qUQialb6zIpBZSvnpH-139">
          <mxGeometry relative="1" as="geometry" />
        </mxCell>
        <mxCell id="E4qUQialb6zIpBZSvnpH-136" value="D" style="ellipse;whiteSpace=wrap;html=1;" vertex="1" parent="1">
          <mxGeometry x="390" y="665" width="50" height="50" as="geometry" />
        </mxCell>
        <mxCell id="E4qUQialb6zIpBZSvnpH-138" value="FILME" style="rounded=0;whiteSpace=wrap;html=1;" vertex="1" parent="1">
          <mxGeometry x="431" y="820" width="75" height="30" as="geometry" />
        </mxCell>
        <mxCell id="E4qUQialb6zIpBZSvnpH-139" value="SERIE" style="rounded=0;whiteSpace=wrap;html=1;" vertex="1" parent="1">
          <mxGeometry x="340" y="820" width="75" height="30" as="geometry" />
        </mxCell>
        <mxCell id="E4qUQialb6zIpBZSvnpH-141" style="edgeStyle=orthogonalEdgeStyle;rounded=0;orthogonalLoop=1;jettySize=auto;html=1;entryX=0.72;entryY=0.96;entryDx=0;entryDy=0;entryPerimeter=0;endArrow=none;endFill=0;" edge="1" parent="1" source="E4qUQialb6zIpBZSvnpH-138" target="E4qUQialb6zIpBZSvnpH-136">
          <mxGeometry relative="1" as="geometry">
            <Array as="points">
              <mxPoint x="460" y="770" />
              <mxPoint x="426" y="770" />
            </Array>
          </mxGeometry>
        </mxCell>
        <mxCell id="E4qUQialb6zIpBZSvnpH-143" value="" style="edgeStyle=orthogonalEdgeStyle;rounded=0;orthogonalLoop=1;jettySize=auto;html=1;endArrow=none;endFill=0;" edge="1" parent="1" source="E4qUQialb6zIpBZSvnpH-142" target="E4qUQialb6zIpBZSvnpH-138">
          <mxGeometry relative="1" as="geometry" />
        </mxCell>
        <mxCell id="E4qUQialb6zIpBZSvnpH-142" value="duraÃ§ao" style="ellipse;whiteSpace=wrap;html=1;" vertex="1" parent="1">
          <mxGeometry x="434" y="890" width="70" height="30" as="geometry" />
        </mxCell>
        <mxCell id="E4qUQialb6zIpBZSvnpH-150" value="" style="edgeStyle=orthogonalEdgeStyle;rounded=0;orthogonalLoop=1;jettySize=auto;html=1;endArrow=none;endFill=0;" edge="1" parent="1" source="E4qUQialb6zIpBZSvnpH-144" target="E4qUQialb6zIpBZSvnpH-145">
          <mxGeometry relative="1" as="geometry" />
        </mxCell>
        <mxCell id="E4qUQialb6zIpBZSvnpH-151" value="" style="edgeStyle=orthogonalEdgeStyle;rounded=0;orthogonalLoop=1;jettySize=auto;html=1;endArrow=none;endFill=0;" edge="1" parent="1" source="E4qUQialb6zIpBZSvnpH-144" target="E4qUQialb6zIpBZSvnpH-139">
          <mxGeometry relative="1" as="geometry" />
        </mxCell>
        <mxCell id="E4qUQialb6zIpBZSvnpH-144" value="tem" style="rhombus;whiteSpace=wrap;html=1;" vertex="1" parent="1">
          <mxGeometry x="352.5" y="880" width="50" height="30" as="geometry" />
        </mxCell>
        <mxCell id="E4qUQialb6zIpBZSvnpH-145" value="EPISODIO" style="rounded=0;whiteSpace=wrap;html=1;" vertex="1" parent="1">
          <mxGeometry x="340" y="950" width="75" height="30" as="geometry" />
        </mxCell>
        <mxCell id="E4qUQialb6zIpBZSvnpH-147" value="" style="edgeStyle=orthogonalEdgeStyle;rounded=0;orthogonalLoop=1;jettySize=auto;html=1;endArrow=none;endFill=0;" edge="1" parent="1" source="E4qUQialb6zIpBZSvnpH-146" target="E4qUQialb6zIpBZSvnpH-145">
          <mxGeometry relative="1" as="geometry" />
        </mxCell>
        <mxCell id="E4qUQialb6zIpBZSvnpH-146" value="&lt;u&gt;nome&lt;/u&gt;" style="ellipse;whiteSpace=wrap;html=1;" vertex="1" parent="1">
          <mxGeometry x="345" y="1040" width="40" height="20" as="geometry" />
        </mxCell>
        <mxCell id="E4qUQialb6zIpBZSvnpH-149" style="edgeStyle=orthogonalEdgeStyle;rounded=0;orthogonalLoop=1;jettySize=auto;html=1;entryX=0.75;entryY=1;entryDx=0;entryDy=0;endArrow=none;endFill=0;" edge="1" parent="1" source="E4qUQialb6zIpBZSvnpH-148" target="E4qUQialb6zIpBZSvnpH-145">
          <mxGeometry relative="1" as="geometry" />
        </mxCell>
        <mxCell id="E4qUQialb6zIpBZSvnpH-148" value="duraÃ§ao" style="ellipse;whiteSpace=wrap;html=1;" vertex="1" parent="1">
          <mxGeometry x="400" y="1035" width="70" height="30" as="geometry" />
        </mxCell>
        <mxCell id="E4qUQialb6zIpBZSvnpH-153" style="edgeStyle=orthogonalEdgeStyle;rounded=0;orthogonalLoop=1;jettySize=auto;html=1;entryX=0;entryY=0.5;entryDx=0;entryDy=0;endArrow=none;endFill=0;" edge="1" parent="1" source="E4qUQialb6zIpBZSvnpH-152" target="E4qUQialb6zIpBZSvnpH-144">
          <mxGeometry relative="1" as="geometry" />
        </mxCell>
        <mxCell id="E4qUQialb6zIpBZSvnpH-152" value="TEMPORADA" style="rounded=0;whiteSpace=wrap;html=1;" vertex="1" parent="1">
          <mxGeometry x="170" y="880" width="105" height="30" as="geometry" />
        </mxCell>
        <mxCell id="E4qUQialb6zIpBZSvnpH-158" value="" style="edgeStyle=orthogonalEdgeStyle;rounded=0;orthogonalLoop=1;jettySize=auto;html=1;endArrow=none;endFill=0;" edge="1" parent="1" source="E4qUQialb6zIpBZSvnpH-157" target="E4qUQialb6zIpBZSvnpH-152">
          <mxGeometry relative="1" as="geometry" />
        </mxCell>
        <mxCell id="E4qUQialb6zIpBZSvnpH-157" value="&lt;u&gt;numero&lt;/u&gt;" style="ellipse;whiteSpace=wrap;html=1;" vertex="1" parent="1">
          <mxGeometry x="170" y="820" width="60" height="20" as="geometry" />
        </mxCell>
        <mxCell id="E4qUQialb6zIpBZSvnpH-164" style="edgeStyle=orthogonalEdgeStyle;rounded=0;orthogonalLoop=1;jettySize=auto;html=1;exitX=0;exitY=0.5;exitDx=0;exitDy=0;entryX=1;entryY=0.25;entryDx=0;entryDy=0;endArrow=none;endFill=0;" edge="1" parent="1" source="E4qUQialb6zIpBZSvnpH-160" target="E4qUQialb6zIpBZSvnpH-117">
          <mxGeometry relative="1" as="geometry" />
        </mxCell>
        <mxCell id="E4qUQialb6zIpBZSvnpH-160" value="Ã© adicionado" style="rhombus;whiteSpace=wrap;html=1;" vertex="1" parent="1">
          <mxGeometry x="755" y="758" width="90" height="40" as="geometry" />
        </mxCell>
        <mxCell id="E4qUQialb6zIpBZSvnpH-165" value="N" style="text;html=1;align=center;verticalAlign=middle;whiteSpace=wrap;rounded=0;" vertex="1" parent="1">
          <mxGeometry x="720" y="743" width="20" height="20" as="geometry" />
        </mxCell>
        <mxCell id="E4qUQialb6zIpBZSvnpH-166" value="1" style="text;html=1;align=center;verticalAlign=middle;whiteSpace=wrap;rounded=0;" vertex="1" parent="1">
          <mxGeometry x="876.25" y="743" width="10" height="20" as="geometry" />
        </mxCell>
        <mxCell id="E4qUQialb6zIpBZSvnpH-168" value="" style="edgeStyle=orthogonalEdgeStyle;rounded=0;orthogonalLoop=1;jettySize=auto;html=1;endArrow=none;endFill=0;" edge="1" parent="1" source="E4qUQialb6zIpBZSvnpH-167" target="E4qUQialb6zIpBZSvnpH-1">
          <mxGeometry relative="1" as="geometry" />
        </mxCell>
        <mxCell id="E4qUQialb6zIpBZSvnpH-169" style="edgeStyle=orthogonalEdgeStyle;rounded=0;orthogonalLoop=1;jettySize=auto;html=1;entryX=0.75;entryY=0;entryDx=0;entryDy=0;endArrow=none;endFill=0;" edge="1" parent="1" source="E4qUQialb6zIpBZSvnpH-167" target="E4qUQialb6zIpBZSvnpH-117">
          <mxGeometry relative="1" as="geometry" />
        </mxCell>
        <mxCell id="E4qUQialb6zIpBZSvnpH-167" value="possui" style="rhombus;whiteSpace=wrap;html=1;" vertex="1" parent="1">
          <mxGeometry x="365" y="380" width="50" height="40" as="geometry" />
        </mxCell>
        <mxCell id="E4qUQialb6zIpBZSvnpH-170" value="1" style="text;html=1;align=center;verticalAlign=middle;whiteSpace=wrap;rounded=0;" vertex="1" parent="1">
          <mxGeometry x="410" y="360" width="10" height="20" as="geometry" />
        </mxCell>
        <mxCell id="E4qUQialb6zIpBZSvnpH-171" value="N" style="text;html=1;align=center;verticalAlign=middle;whiteSpace=wrap;rounded=0;" vertex="1" parent="1">
          <mxGeometry x="345" y="400" width="20" height="20" as="geometry" />
        </mxCell>
        <mxCell id="E4qUQialb6zIpBZSvnpH-174" value="" style="edgeStyle=orthogonalEdgeStyle;rounded=0;orthogonalLoop=1;jettySize=auto;html=1;endArrow=none;endFill=0;" edge="1" parent="1" source="E4qUQialb6zIpBZSvnpH-172" target="E4qUQialb6zIpBZSvnpH-98">
          <mxGeometry relative="1" as="geometry" />
        </mxCell>
        <mxCell id="E4qUQialb6zIpBZSvnpH-175" style="edgeStyle=orthogonalEdgeStyle;rounded=0;orthogonalLoop=1;jettySize=auto;html=1;entryX=0.5;entryY=0;entryDx=0;entryDy=0;shape=link;" edge="1" parent="1" source="E4qUQialb6zIpBZSvnpH-172" target="E4qUQialb6zIpBZSvnpH-117">
          <mxGeometry relative="1" as="geometry">
            <Array as="points">
              <mxPoint x="136" y="460" />
              <mxPoint x="255" y="460" />
            </Array>
          </mxGeometry>
        </mxCell>
        <mxCell id="E4qUQialb6zIpBZSvnpH-172" value="possui" style="rhombus;whiteSpace=wrap;html=1;" vertex="1" parent="1">
          <mxGeometry x="98" y="400" width="75" height="40" as="geometry" />
        </mxCell>
        <mxCell id="E4qUQialb6zIpBZSvnpH-176" value="1" style="text;html=1;align=center;verticalAlign=middle;whiteSpace=wrap;rounded=0;" vertex="1" parent="1">
          <mxGeometry x="115" y="370" width="10" height="20" as="geometry" />
        </mxCell>
        <mxCell id="E4qUQialb6zIpBZSvnpH-177" value="N" style="text;html=1;align=center;verticalAlign=middle;whiteSpace=wrap;rounded=0;" vertex="1" parent="1">
          <mxGeometry x="100" y="450" width="20" height="20" as="geometry" />
        </mxCell>
        <mxCell id="E4qUQialb6zIpBZSvnpH-187" style="edgeStyle=orthogonalEdgeStyle;rounded=0;orthogonalLoop=1;jettySize=auto;html=1;entryX=0.25;entryY=1;entryDx=0;entryDy=0;" edge="1" parent="1" source="E4qUQialb6zIpBZSvnpH-183" target="E4qUQialb6zIpBZSvnpH-60">
          <mxGeometry relative="1" as="geometry" />
        </mxCell>
        <mxCell id="E4qUQialb6zIpBZSvnpH-183" value="assiste" style="rhombus;whiteSpace=wrap;html=1;" vertex="1" parent="1">
          <mxGeometry x="795" y="520" width="100" height="40" as="geometry" />
        </mxCell>
        <mxCell id="E4qUQialb6zIpBZSvnpH-190" style="edgeStyle=orthogonalEdgeStyle;rounded=0;orthogonalLoop=1;jettySize=auto;html=1;entryX=1;entryY=0.25;entryDx=0;entryDy=0;endArrow=none;endFill=0;" edge="1" parent="1" source="E4qUQialb6zIpBZSvnpH-184" target="E4qUQialb6zIpBZSvnpH-117">
          <mxGeometry relative="1" as="geometry">
            <Array as="points">
              <mxPoint x="780" y="595" />
              <mxPoint x="780" y="580" />
              <mxPoint x="310" y="580" />
            </Array>
          </mxGeometry>
        </mxCell>
        <mxCell id="E4qUQialb6zIpBZSvnpH-184" value="curte" style="rhombus;whiteSpace=wrap;html=1;" vertex="1" parent="1">
          <mxGeometry x="795" y="575" width="105" height="40" as="geometry" />
        </mxCell>
        <mxCell id="E4qUQialb6zIpBZSvnpH-188" style="edgeStyle=orthogonalEdgeStyle;rounded=0;orthogonalLoop=1;jettySize=auto;html=1;entryX=0.667;entryY=1.083;entryDx=0;entryDy=0;entryPerimeter=0;" edge="1" parent="1" source="E4qUQialb6zIpBZSvnpH-184" target="E4qUQialb6zIpBZSvnpH-60">
          <mxGeometry relative="1" as="geometry" />
        </mxCell>
        <mxCell id="E4qUQialb6zIpBZSvnpH-189" style="edgeStyle=orthogonalEdgeStyle;rounded=0;orthogonalLoop=1;jettySize=auto;html=1;entryX=0.918;entryY=0.018;entryDx=0;entryDy=0;entryPerimeter=0;endArrow=none;endFill=0;" edge="1" parent="1" source="E4qUQialb6zIpBZSvnpH-183" target="E4qUQialb6zIpBZSvnpH-117">
          <mxGeometry relative="1" as="geometry" />
        </mxCell>
        <mxCell id="E4qUQialb6zIpBZSvnpH-191" value="N" style="text;html=1;align=center;verticalAlign=middle;whiteSpace=wrap;rounded=0;" vertex="1" parent="1">
          <mxGeometry x="770" y="520" width="20" height="20" as="geometry" />
        </mxCell>
        <mxCell id="E4qUQialb6zIpBZSvnpH-193" value="N" style="text;html=1;align=center;verticalAlign=middle;whiteSpace=wrap;rounded=0;" vertex="1" parent="1">
          <mxGeometry x="780" y="600" width="20" height="20" as="geometry" />
        </mxCell>
        <mxCell id="E4qUQialb6zIpBZSvnpH-194" value="N" style="text;html=1;align=center;verticalAlign=middle;whiteSpace=wrap;rounded=0;" vertex="1" parent="1">
          <mxGeometry x="900" y="600" width="20" height="20" as="geometry" />
        </mxCell>
        <mxCell id="E4qUQialb6zIpBZSvnpH-195" value="N" style="text;html=1;align=center;verticalAlign=middle;whiteSpace=wrap;rounded=0;" vertex="1" parent="1">
          <mxGeometry x="895" y="520" width="20" height="20" as="geometry" />
        </mxCell>
      </root>
    </mxGraphModel>
  </diagram>
</mxfile>
